{
  "accessors": [
    {
      "bufferView": 2,
      "componentType": 5126,
      "count": 1738,
      "max": [
        39.370079040527344,
        39.370079040527344,
        29.52756118774414
      ],
      "min": [
        -39.370079040527344,
        -39.370079040527344,
        0.0
      ],
      "type": "VEC3"
    },
    {
      "bufferView": 2,
      "byteOffset": 20856,
      "componentType": 5126,
      "count": 1738,
      "max": [
        1.0,
        1.0,
        1.0
      ],
      "min": [
        -1.0,
        -1.0,
        -1.0
      ],
      "type": "VEC3"
    },
    {
      "bufferView": 1,
      "componentType": 5126,
      "count": 1738,
      "max": [
        0.48276761174201965,
        0.5078774690628052
      ],
      "min": [
        0.3933166563510895,
        0.06420040130615234
      ],
      "type": "VEC2"
    },
    {
      "bufferView": 0,
      "componentType": 5125,
      "count": 2592,
      "type": "SCALAR"
    },
    {
      "bufferView": 2,
      "byteOffset": 41712,
      "componentType": 5126,
      "count": 230,
      "max": [
        4.921260356903076,
        4.261937141418457,
        70.86614990234375
      ],
      "min": [
        -4.921265125274658,
        -73.15974426269531,
        62.99212646484375
      ],
      "type": "VEC3"
    },
    {
      "bufferView": 2,
      "byteOffset": 44472,
      "componentType": 5126,
      "count": 230,
      "max": [
        1.0,
        1.0,
        1.0
      ],
      "min": [
        -1.0,
        -1.0,
        -1.0
      ],
      "type": "VEC3"
    },
    {
      "bufferView": 1,
      "byteOffset": 13904,
      "componentType": 5126,
      "count": 230,
      "max": [
        0.0489860363304615,
        0.7014584541320801
      ],
      "min": [
        0.003175456076860428,
        0.22502902150154114
      ],
      "type": "VEC2"
    },
    {
      "bufferView": 0,
      "byteOffset": 10368,
      "componentType": 5125,
      "count": 306,
      "type": "SCALAR"
    },
    {
      "bufferView": 2,
      "byteOffset": 47232,
      "componentType": 5126,
      "count": 40,
      "max": [
        1.9685039520263672,
        33.46456527709961,
        9.842519760131836
      ],
      "min": [
        -1.9685039520263672,
        -33.46456527709961,
        0.0
      ],
      "type": "VEC3"
    },
    {
      "bufferView": 2,
      "byteOffset": 47712,
      "componentType": 5126,
      "count": 40,
      "max": [
        1.0,
        1.0,
        1.0
      ],
      "min": [
        -1.0,
        -1.0,
        -1.0
      ],
      "type": "VEC3"
    },
    {
      "bufferView": 1,
      "byteOffset": 15744,
      "componentType": 5126,
      "count": 40,
      "max": [
        0.9823731780052185,
        0.6481550931930542
      ],
      "min": [
        0.8860120177268982,
        0.3881435692310333
      ],
      "type": "VEC2"
    },
    {
      "bufferView": 0,
      "byteOffset": 11592,
      "componentType": 5125,
      "count": 60,
      "type": "SCALAR"
    },
    {
      "bufferView": 2,
      "byteOffset": 48192,
      "componentType": 5126,
      "count": 344,
      "max": [
        3.7401576042175293,
        3.080833911895752,
        62.99213409423828
      ],
      "min": [
        -3.7401628494262695,
        -71.97865295410156,
        -2.6529529305796204e-15
      ],
      "type": "VEC3"
    },
    {
      "bufferView": 2,
      "byteOffset": 52320,
      "componentType": 5126,
      "count": 344,
      "max": [
        1.0,
        1.0,
        1.0
      ],
      "min": [
        -1.0,
        -1.0,
        -1.0
      ],
      "type": "VEC3"
    },
    {
      "bufferView": 1,
      "byteOffset": 16064,
      "componentType": 5126,
      "count": 344,
      "max": [
        0.8744850158691406,
        1.0
      ],
      "min": [
        0.013432338833808899,
        2.9802322387695313e-08
      ],
      "type": "VEC2"
    },
    {
      "bufferView": 0,
      "byteOffset": 11832,
      "componentType": 5125,
      "count": 396,
      "type": "SCALAR"
    },
    {
      "bufferView": 2,
      "byteOffset": 56448,
      "componentType": 5126,
      "count": 40,
      "max": [
        1.9685039520263672,
        33.46456527709961,
        9.842519760131836
      ],
      "min": [
        -1.9685039520263672,
        -33.46456527709961,
        0.0
      ],
      "type": "VEC3"
    },
    {
      "bufferView": 2,
      "byteOffset": 56928,
      "componentType": 5126,
      "count": 40,
      "max": [
        1.0,
        1.0,
        1.0
      ],
      "min": [
        -1.0,
        -1.0,
        -1.0
      ],
      "type": "VEC3"
    },
    {
      "bufferView": 1,
      "byteOffset": 18816,
      "componentType": 5126,
      "count": 40,
      "max": [
        0.9823731780052185,
        0.6481547355651855
      ],
      "min": [
        0.8860120177268982,
        0.3881433606147766
      ],
      "type": "VEC2"
    },
    {
      "bufferView": 0,
      "byteOffset": 13416,
      "componentType": 5125,
      "count": 60,
      "type": "SCALAR"
    },
    {
      "bufferView": 2,
      "byteOffset": 57408,
      "componentType": 5126,
      "count": 48,
      "max": [
        1.9685039520263672,
        33.46456527709961,
        9.842519760131836
      ],
      "min": [
        -1.9685039520263672,
        -33.46456527709961,
        -9.842519760131836
      ],
      "type": "VEC3"
    },
    {
      "bufferView": 2,
      "byteOffset": 57984,
      "componentType": 5126,
      "count": 48,
      "max": [
        1.0,
        1.0,
        1.0
      ],
      "min": [
        -1.0,
        -1.0,
        -1.0
      ],
      "type": "VEC3"
    },
    {
      "bufferView": 1,
      "byteOffset": 19136,
      "componentType": 5126,
      "count": 48,
      "max": [
        0.9857859015464783,
        0.648483395576477
      ],
      "min": [
        0.8863982558250427,
        0.12769187986850739
      ],
      "type": "VEC2"
    },
    {
      "bufferView": 0,
      "byteOffset": 13656,
      "componentType": 5125,
      "count": 84,
      "type": "SCALAR"
    },
    {
      "bufferView": 2,
      "byteOffset": 58560,
      "componentType": 5126,
      "count": 274,
      "max": [
        4.921259880065918,
        4.261936187744141,
        8.374575372727122e-06
      ],
      "min": [
        -4.921265125274658,
        -73.15975952148438,
        -7.874015808105469
      ],
      "type": "VEC3"
    },
    {
      "bufferView": 2,
      "byteOffset": 61848,
      "componentType": 5126,
      "count": 274,
      "max": [
        1.0,
        1.0,
        1.0
      ],
      "min": [
        -1.0,
        -1.0,
        -1.0
      ],
      "type": "VEC3"
    },
    {
      "bufferView": 1,
      "byteOffset": 19520,
      "componentType": 5126,
      "count": 274,
      "max": [
        0.0489860363304615,
        0.7014598846435547
      ],
      "min": [
        0.003175456076860428,
        0.22503043711185455
      ],
      "type": "VEC2"
    },
    {
      "bufferView": 0,
      "byteOffset": 13992,
      "componentType": 5125,
      "count": 306,
      "type": "SCALAR"
    }
  ],
  "asset": {
    "extras": {
      "author": "TNTbuster. (https://sketchfab.com/Carterk10)",
      "license": "SKETCHFAB Standard (https://sketchfab.com/licenses)",
      "source": "https://sketchfab.com/3d-models/conveyor-belt-aff254fbadce40dc82810fdec907eb36",
      "title": "Conveyor Belt"
    },
    "generator": "Sketchfab-16.12.0",
    "version": "2.0"
  },
  "bufferViews": [
    {
      "buffer": 0,
      "byteLength": 15216,
      "name": "floatBufferViews",
      "target": 34963
    },
    {
      "buffer": 0,
      "byteLength": 21712,
      "byteOffset": 15216,
      "byteStride": 8,
      "name": "floatBufferViews",
      "target": 34962
    },
    {
      "buffer": 0,
      "byteLength": 65136,
      "byteOffset": 36928,
      "byteStride": 12,
      "name": "floatBufferViews",
      "target": 34962
    }
  ],
  "buffers": [
    {
      "byteLength": 102064,
      "uri": "scene.bin"
    }
  ],
  "images": [
    {
      "uri": "textures/Material_23_baseColor.png"
    }
  ],
  "materials": [
    {
      "doubleSided": true,
      "name": "Conveyor__0",
      "pbrMetallicRoughness": {
        "baseColorFactor": [
          0.013314292935956682,
          0.01102086239008149,
          0.01102086239008149,
          1.0
        ],
        "metallicFactor": 0.0
      }
    },
    {
      "doubleSided": true,
      "name": "Material_23",
      "pbrMetallicRoughness": {
        "baseColorTexture": {
          "index": 0
        },
        "roughnessFactor": 0.2971437627238483
      }
    },
    {
      "doubleSided": true,
      "name": "Material_26",
      "pbrMetallicRoughness": {
        "baseColorFactor": [
          0.7158558931551351,
          0.7158558931551351,
          0.7158558931551351,
          1.0
        ],
        "metallicFactor": 0.5287635162316685,
        "roughnessFactor": 0.23009593934000558
      }
    }
  ],
  "meshes": [
    {
      "name": "ConveyorFrame_Material #23_0",
      "primitives": [
        {
          "attributes": {
            "NORMAL": 1,
            "POSITION": 0,
            "TEXCOORD_0": 2
          },
          "indices": 3,
          "material": 1,
          "mode": 4
        }
      ]
    },
    {
      "name": "ConveyorConnectorR_Material #26_0",
      "primitives": [
        {
          "attributes": {
            "NORMAL": 5,
            "POSITION": 4,
            "TEXCOORD_0": 6
          },
          "indices": 7,
          "material": 2,
          "mode": 4
        }
      ]
    },
    {
      "name": "BarrierL_Material #23_0",
      "primitives": [
        {
          "attributes": {
            "NORMAL": 9,
            "POSITION": 8,
            "TEXCOORD_0": 10
          },
          "indices": 11,
          "material": 1,
          "mode": 4
        }
      ]
    },
    {
      "name": "Conveyor__0",
      "primitives": [
        {
          "attributes": {
            "NORMAL": 13,
            "POSITION": 12,
            "TEXCOORD_0": 14
          },
          "indices": 15,
          "material": 0,
          "mode": 4
        }
      ]
    },
    {
      "name": "BarrierR_Material #23_0",
      "primitives": [
        {
          "attributes": {
            "NORMAL": 17,
            "POSITION": 16,
            "TEXCOORD_0": 18
          },
          "indices": 19,
          "material": 1,
          "mode": 4
        }
      ]
    },
    {
      "name": "BarrierTall_Material #23_0",
      "primitives": [
        {
          "attributes": {
            "NORMAL": 21,
            "POSITION": 20,
            "TEXCOORD_0": 22
          },
          "indices": 23,
          "material": 1,
          "mode": 4
        }
      ]
    },
    {
      "name": "ConveyorConnectorL_Material #26_0",
      "primitives": [
        {
          "attributes": {
            "NORMAL": 25,
            "POSITION": 24,
            "TEXCOORD_0": 26
          },
          "indices": 27,
          "material": 2,
          "mode": 4
        }
      ]
    }
  ],
  "nodes": [
    {
      "children": [
        1
      ],
      "matrix": [
        1.0,
        0.0,
        0.0,
        0.0,
        0.0,
        2.220446049250313e-16,
        -1.0,
        0.0,
        0.0,
        1.0,
        2.220446049250313e-16,
        0.0,
        0.0,
        0.0,
        0.0,
        1.0
      ],
      "name": "Sketchfab_model"
    },
    {
      "children": [
        2
      ],
      "matrix": [
        0.02539999969303608,
        0.0,
        0.0,
        0.0,
        0.0,
        0.0,
        0.02539999969303608,
        0.0,
        0.0,
        -0.02539999969303608,
        0.0,
        0.0,
        0.0,
        0.0,
        0.0,
        1.0
      ],
      "name": "652cc22242494b5faa5b88524e611a34.fbx"
    },
    {
      "children": [
        3,
        6,
        9,
        12,
        15,
        18,
        21
      ],
      "name": "RootNode"
    },
    {
      "children": [
        4
      ],
      "matrix": [
        1.0,
        0.0,
        0.0,
        0.0,
        0.0,
        0.999999999999999,
        4.371138828673792e-08,
        0.0,
        0.0,
        -4.371138828673792e-08,
        0.999999999999999,
        0.0,
        0.0,
        0.0,
        0.0,
        1.0
      ],
      "name": "ConveyorFrame"
    },
    {
      "children": [
        5
      ],
      "matrix": [
        1.0,
        0.0,
        0.0,
        0.0,
        0.0,
        6.123233995736766e-17,
        -1.0,
        0.0,
        -0.0,
        1.0,
        6.123233995736766e-17,
        0.0,
        0.0,
        0.0,
        0.0,
        1.0
      ],
      "name": "Object_4"
    },
    {
      "mesh": 0,
      "name": "ConveyorFrame_Material #23_0"
    },
    {
      "children": [
        7
      ],
      "matrix": [
        0.9999999999999848,
        -8.742277657347457e-08,
        1.5099580252808442e-07,
        0.0,
        8.742280117381196e-08,
        0.9999999999999829,
        -1.6292067152042716e-07,
        0.0,
        -1.509957882851044e-07,
        1.629206847209007e-07,
        0.9999999999999754,
        0.0,
        3.814697265625e-06,
        34.44881820678711,
        -7.874015808105469,
        1.0
      ],
      "name": "ConveyorConnectorR"
    },
    {
      "children": [
        8
      ],
      "matrix": [
        -1.331580545214573e-07,
        -0.9999999999999627,
        -2.3841858188457374e-07,
        0.0,
        3.180858686547287e-14,
        2.384185818845716e-07,
        -0.9999999999999716,
        0.0,
        0.9999999999999911,
        -1.331580545214611e-07,
        6.123233995736592e-17,
        0.0,
        -31.496070861816406,
        1.1001948223565705e-05,
        -34.44891357421875,
        1.0
      ],
      "name": "Object_7"
    },
    {
      "mesh": 1,
      "name": "ConveyorConnectorR_Material #26_0"
    },
    {
      "children": [
        10
      ],
      "matrix": [
        1.0,
        0.0,
        0.0,
        0.0,
        0.0,
        0.999999999999999,
        4.371138828673792e-08,
        0.0,
        0.0,
        -4.371138828673792e-08,
        0.999999999999999,
        0.0,
        -33.46456527709961,
        39.370079040527344,
        -7.874015808105469,
        1.0
      ],
      "name": "BarrierL"
    },
    {
      "children": [
        11
      ],
      "matrix": [
        1.0,
        0.0,
        0.0,
        0.0,
        0.0,
        6.123233995736766e-17,
        -1.0,
        0.0,
        -0.0,
        1.0,
        6.123233995736766e-17,
        0.0,
        0.0,
        0.0,
        0.0,
        1.0
      ],
      "name": "Object_10"
    },
    {
      "mesh": 2,
      "name": "BarrierL_Material #23_0"
    },
    {
      "children": [
        13
      ],
      "matrix": [
        0.9999999999999925,
        -2.9802322387695097e-08,
        1.1920928955078039e-07,
        0.0,
        2.9802331387745975e-08,
        0.9999999999999967,
        -7.549789771132903e-08,
        0.0,
        -1.192092873007673e-07,
        7.549790126404322e-08,
        0.99999999999999,
        0.0,
        3.814697265625e-06,
        34.44881820678711,
        -7.874015808105469,
        1.0
      ],
      "name": "Conveyor"
    },
    {
      "children": [
        14
      ],
      "matrix": [
        6.123233995736741e-17,
        -0.999999999999996,
        -8.940697019092551e-08,
        0.0,
        6.123233448276966e-17,
        8.940697019092551e-08,
        -0.999999999999996,
        0.0,
        1.0,
        6.123233448276966e-17,
        6.123233995736741e-17,
        0.0,
        -31.496068954467773,
        5.066709036327666e-06,
        -34.44891357421875,
        1.0
      ],
      "name": "Object_13"
    },
    {
      "mesh": 3,
      "name": "Conveyor__0"
    },
    {
      "children": [
        16
      ],
      "matrix": [
        1.0,
        0.0,
        0.0,
        0.0,
        0.0,
        0.999999999999999,
        4.371138828673792e-08,
        0.0,
        0.0,
        -4.371138828673792e-08,
        0.999999999999999,
        0.0,
        33.46456527709961,
        39.370079040527344,
        -7.874015808105469,
        1.0
      ],
      "name": "BarrierR"
    },
    {
      "children": [
        17
      ],
      "matrix": [
        0.9999999999999978,
        2.1855696091754596e-08,
        -6.243801349229491e-08,
        0.0,
        -6.24380134922949e-08,
        -1.3033939075031057e-15,
        -0.999999999999998,
        0.0,
        -2.1855696091754635e-08,
        0.9999999999999998,
        6.123233995736754e-17,
        0.0,
        0.0,
        0.0,
        0.0,
        1.0
      ],
      "name": "Object_16"
    },
    {
      "mesh": 4,
      "name": "BarrierR_Material #23_0"
    },
    {
      "children": [
        19
      ],
      "matrix": [
        4.3711388175715626e-08,
        -6.617444900424222e-24,
        -0.999999999999999,
        0.0,
        4.371138822550555e-08,
        0.999999999999999,
        1.9106854552385377e-15,
        0.0,
        0.9999999999999981,
        -4.37113882255056e-08,
        4.3711388175715626e-08,
        0.0,
        0.0,
        39.370079040527344,
        35.43307113647461,
        1.0
      ],
      "name": "BarrierTall"
    },
    {
      "children": [
        20
      ],
      "matrix": [
        1.0,
        0.0,
        0.0,
        0.0,
        0.0,
        6.123233995736766e-17,
        -1.0,
        0.0,
        -0.0,
        1.0,
        6.123233995736766e-17,
        0.0,
        0.0,
        0.0,
        0.0,
        1.0
      ],
      "name": "Object_19"
    },
    {
      "mesh": 5,
      "name": "BarrierTall_Material #23_0"
    },
    {
      "children": [
        22
      ],
      "matrix": [
        0.9999999999999962,
        -8.742277657347554e-08,
        -5.353099662303055e-24,
        0.0,
        8.742277657347387e-08,
        0.9999999999999772,
        -1.9470718370939605e-07,
        0.0,
        1.7021842624030283e-14,
        1.947071837093953e-07,
        0.999999999999981,
        0.0,
        3.814697265625e-06,
        34.44881820678711,
        -7.874015808105469,
        1.0
      ],
      "name": "ConveyorConnectorL"
    },
    {
      "children": [
        23
      ],
      "matrix": [
        -1.331580545214573e-07,
        -0.9999999999999627,
        -2.3841858188457374e-07,
        0.0,
        3.180858686547287e-14,
        2.384185818845716e-07,
        -0.9999999999999716,
        0.0,
        0.9999999999999911,
        -1.331580545214611e-07,
        6.123233995736592e-17,
        0.0,
        -31.496070861816406,
        1.1001948223565705e-05,
        -34.44891357421875,
        1.0
      ],
      "name": "Object_22"
    },
    {
      "mesh": 6,
      "name": "ConveyorConnectorL_Material #26_0"
    }
  ],
  "samplers": [
    {
      "magFilter": 9729,
      "minFilter": 9987,
      "wrapS": 10497,
      "wrapT": 10497
    }
  ],
  "scene": 0,
  "scenes": [
    {
      "name": "Sketchfab_Scene",
      "nodes": [
        0
      ]
    }
  ],
  "textures": [
    {
      "sampler": 0,
      "source": 0
    }
  ]
}
