{
  "accessors": [
    {
      "bufferView": 2,
      "componentType": 5126,
      "count": 1567,
      "max": [
        6.273489475250244,
        11.437914848327637,
        6.335020065307617
      ],
      "min": [
        -6.657835960388184,
        -10.903794288635254,
        -6.677961349487305
      ],
      "type": "VEC3"
    },
    {
      "bufferView": 2,
      "byteOffset": 18804,
      "componentType": 5126,
      "count": 1567,
      "max": [
        0.9999740123748779,
        0.9999275207519531,
        0.9999526143074036
      ],
      "min": [
        -0.9999942779541016,
        -0.9036656022071838,
        -0.9999526143074036
      ],
      "type": "VEC3"
    },
    {
      "bufferView": 1,
      "componentType": 5126,
      "count": 1567,
      "max": [
        0.8674179911613464,
        0.7248445749282837
      ],
      "min": [
        0.7083804607391357,
        0.6709409356117249
      ],
      "type": "VEC2"
    },
    {
      "bufferView": 0,
      "componentType": 5125,
      "count": 4218,
      "type": "SCALAR"
    },
    {
      "bufferView": 2,
      "byteOffset": 37608,
      "componentType": 5126,
      "count": 1021,
      "max": [
        14.62545108795166,
        7.655130386352539,
        6.192672252655029
      ],
      "min": [
        -12.837976455688477,
        -6.348130226135254,
        -6.1926679611206055
      ],
      "type": "VEC3"
    },
    {
      "bufferView": 2,
      "byteOffset": 49860,
      "componentType": 5126,
      "count": 1021,
      "max": [
        0.9967618584632874,
        1.0,
        0.9994972348213196
      ],
      "min": [
        -0.9980533719062805,
        -1.0,
        -0.99949711561203
      ],
      "type": "VEC3"
    },
    {
      "bufferView": 1,
      "byteOffset": 12536,
      "componentType": 5126,
      "count": 1021,
      "max": [
        0.8611496090888977,
        0.865097165107727
      ],
      "min": [
        0.31873175501823425,
        0.024926798418164253
      ],
      "type": "VEC2"
    },
    {
      "bufferView": 0,
      "byteOffset": 16872,
      "componentType": 5125,
      "count": 2673,
      "type": "SCALAR"
    },
    {
      "bufferView": 2,
      "byteOffset": 62112,
      "componentType": 5126,
      "count": 1436,
      "max": [
        16.564908981323242,
        6.023021221160889,
        11.145055770874023
      ],
      "min": [
        -16.127832412719727,
        0.014942829497158527,
        -11.945544242858887
      ],
      "type": "VEC3"
    },
    {
      "bufferView": 2,
      "byteOffset": 79344,
      "componentType": 5126,
      "count": 1436,
      "max": [
        0.9826573729515076,
        1.0,
        0.9970831871032715
      ],
      "min": [
        -0.9826575517654419,
        -0.9611731767654419,
        -0.9971597790718079
      ],
      "type": "VEC3"
    },
    {
      "bufferView": 1,
      "byteOffset": 20704,
      "componentType": 5126,
      "count": 1436,
      "max": [
        0.2127523124217987,
        0.7241008281707764
      ],
      "min": [
        0.1599825918674469,
        0.6306553483009338
      ],
      "type": "VEC2"
    },
    {
      "bufferView": 0,
      "byteOffset": 27564,
      "componentType": 5125,
      "count": 4116,
      "type": "SCALAR"
    },
    {
      "bufferView": 2,
      "byteOffset": 96576,
      "componentType": 5126,
      "count": 510,
      "max": [
        8.236063003540039,
        11.387584686279297,
        4.106135845184326
      ],
      "min": [
        -8.236063003540039,
        -3.533050537109375,
        -4.106135845184326
      ],
      "type": "VEC3"
    },
    {
      "bufferView": 2,
      "byteOffset": 102696,
      "componentType": 5126,
      "count": 510,
      "max": [
        0.9945389032363892,
        0.9974796772003174,
        0.9949306845664978
      ],
      "min": [
        -0.9945387244224548,
        -0.9974794387817383,
        -0.994940996170044
      ],
      "type": "VEC3"
    },
    {
      "bufferView": 1,
      "byteOffset": 32192,
      "componentType": 5126,
      "count": 510,
      "max": [
        0.5706411004066467,
        0.7180415987968445
      ],
      "min": [
        0.03735318034887314,
        0.01496342197060585
      ],
      "type": "VEC2"
    },
    {
      "bufferView": 0,
      "byteOffset": 44028,
      "componentType": 5125,
      "count": 1944,
      "type": "SCALAR"
    },
    {
      "bufferView": 2,
      "byteOffset": 108816,
      "componentType": 5126,
      "count": 2131,
      "max": [
        16.296659469604492,
        10.058816909790039,
        8.252833366394043
      ],
      "min": [
        -16.296659469604492,
        0.0051882038824260235,
        -8.252833366394043
      ],
      "type": "VEC3"
    },
    {
      "bufferView": 2,
      "byteOffset": 134388,
      "componentType": 5126,
      "count": 2131,
      "max": [
        0.9991390705108643,
        1.0,
        0.9995940327644348
      ],
      "min": [
        -0.9987429976463318,
        -1.0,
        -0.9986856579780579
      ],
      "type": "VEC3"
    },
    {
      "bufferView": 1,
      "byteOffset": 36272,
      "componentType": 5126,
      "count": 2131,
      "max": [
        0.8325403332710266,
        0.9926547408103943
      ],
      "min": [
        0.1592516303062439,
        0.04847858101129532
      ],
      "type": "VEC2"
    },
    {
      "bufferView": 0,
      "byteOffset": 51804,
      "componentType": 5125,
      "count": 6543,
      "type": "SCALAR"
    },
    {
      "bufferView": 2,
      "byteOffset": 159960,
      "componentType": 5126,
      "count": 252,
      "max": [
        8.318254470825195,
        6.686581134796143,
        8.466733932495117
      ],
      "min": [
        -8.377084732055664,
        0.03328140452504158,
        -8.343395233154297
      ],
      "type": "VEC3"
    },
    {
      "bufferView": 2,
      "byteOffset": 162984,
      "componentType": 5126,
      "count": 252,
      "max": [
        0.9999940991401672,
        0.9950476884841919,
        0.9999943375587463
      ],
      "min": [
        -0.9999944567680359,
        -0.9944020509719849,
        -0.9999942183494568
      ],
      "type": "VEC3"
    },
    {
      "bufferView": 1,
      "byteOffset": 53320,
      "componentType": 5126,
      "count": 252,
      "max": [
        0.8563785552978516,
        0.8410831093788147
      ],
      "min": [
        0.26374444365501404,
        0.6609992384910583
      ],
      "type": "VEC2"
    },
    {
      "bufferView": 0,
      "byteOffset": 77976,
      "componentType": 5125,
      "count": 936,
      "type": "SCALAR"
    },
    {
      "bufferView": 2,
      "byteOffset": 166008,
      "componentType": 5126,
      "count": 266,
      "max": [
        19.47735023498535,
        5.347033977508545,
        5.498734474182129
      ],
      "min": [
        -14.105911254882813,
        -5.505329132080078,
        -5.498734474182129
      ],
      "type": "VEC3"
    },
    {
      "bufferView": 2,
      "byteOffset": 169200,
      "componentType": 5126,
      "count": 266,
      "max": [
        1.0,
        0.9929105043411255,
        1.0
      ],
      "min": [
        -0.9956251382827759,
        -1.0,
        -1.0
      ],
      "type": "VEC3"
    },
    {
      "bufferView": 1,
      "byteOffset": 55336,
      "componentType": 5126,
      "count": 266,
      "max": [
        0.35571202635765076,
        0.7272697687149048
      ],
      "min": [
        0.15340681374073029,
        0.6549801826477051
      ],
      "type": "VEC2"
    },
    {
      "bufferView": 0,
      "byteOffset": 81720,
      "componentType": 5125,
      "count": 804,
      "type": "SCALAR"
    },
    {
      "bufferView": 2,
      "byteOffset": 172392,
      "componentType": 5126,
      "count": 645,
      "max": [
        8.819084167480469,
        13.569272994995117,
        8.819084167480469
      ],
      "min": [
        -8.819084167480469,
        0.0,
        -8.819084167480469
      ],
      "type": "VEC3"
    },
    {
      "bufferView": 2,
      "byteOffset": 180132,
      "componentType": 5126,
      "count": 645,
      "max": [
        0.9885342717170715,
        1.0,
        0.9920737743377686
      ],
      "min": [
        -0.9884857535362244,
        -0.9232115149497986,
        -0.9875603318214417
      ],
      "type": "VEC3"
    },
    {
      "bufferView": 1,
      "byteOffset": 57464,
      "componentType": 5126,
      "count": 645,
      "max": [
        0.9352391958236694,
        0.8451749682426453
      ],
      "min": [
        0.1999855935573578,
        0.6299691200256348
      ],
      "type": "VEC2"
    },
    {
      "bufferView": 0,
      "byteOffset": 84936,
      "componentType": 5125,
      "count": 1617,
      "type": "SCALAR"
    },
    {
      "bufferView": 2,
      "byteOffset": 187872,
      "componentType": 5126,
      "count": 272,
      "max": [
        14.133927345275879,
        4.76041841506958,
        5.225510597229004
      ],
      "min": [
        -14.133927345275879,
        -6.432974338531494,
        -5.225510597229004
      ],
      "type": "VEC3"
    },
    {
      "bufferView": 2,
      "byteOffset": 191136,
      "componentType": 5126,
      "count": 272,
      "max": [
        0.9999322295188904,
        1.0,
        0.9863256216049194
      ],
      "min": [
        -0.9999322295188904,
        -0.96857088804245,
        -0.9863256812095642
      ],
      "type": "VEC3"
    },
    {
      "bufferView": 1,
      "byteOffset": 62624,
      "componentType": 5126,
      "count": 272,
      "max": [
        0.46288052201271057,
        0.8346450924873352
      ],
      "min": [
        0.18375585973262787,
        0.6469721794128418
      ],
      "type": "VEC2"
    },
    {
      "bufferView": 0,
      "byteOffset": 91404,
      "componentType": 5125,
      "count": 942,
      "type": "SCALAR"
    },
    {
      "bufferView": 2,
      "byteOffset": 194400,
      "componentType": 5126,
      "count": 1504,
      "max": [
        11.65201473236084,
        7.870763778686523,
        11.65201473236084
      ],
      "min": [
        -11.65201473236084,
        0.0,
        -11.65201473236084
      ],
      "type": "VEC3"
    },
    {
      "bufferView": 2,
      "byteOffset": 212448,
      "componentType": 5126,
      "count": 1504,
      "max": [
        0.9973533153533936,
        1.0,
        0.9967564344406128
      ],
      "min": [
        -0.9989196062088013,
        -0.9996524453163147,
        -0.9975179433822632
      ],
      "type": "VEC3"
    },
    {
      "bufferView": 1,
      "byteOffset": 64800,
      "componentType": 5126,
      "count": 1504,
      "max": [
        0.8573983311653137,
        0.9926547408103943
      ],
      "min": [
        0.16190312802791595,
        0.6600692272186279
      ],
      "type": "VEC2"
    },
    {
      "bufferView": 0,
      "byteOffset": 95172,
      "componentType": 5125,
      "count": 4050,
      "type": "SCALAR"
    },
    {
      "bufferView": 2,
      "byteOffset": 230496,
      "componentType": 5126,
      "count": 657,
      "max": [
        18.440753936767578,
        6.319995403289795,
        18.4460506439209
      ],
      "min": [
        -18.451780319213867,
        0.019673161208629608,
        -18.449241638183594
      ],
      "type": "VEC3"
    },
    {
      "bufferView": 2,
      "byteOffset": 238380,
      "componentType": 5126,
      "count": 657,
      "max": [
        0.9997842311859131,
        1.0,
        0.999761700630188
      ],
      "min": [
        -0.9997841715812683,
        -1.0,
        -0.999761700630188
      ],
      "type": "VEC3"
    },
    {
      "bufferView": 1,
      "byteOffset": 76832,
      "componentType": 5126,
      "count": 657,
      "max": [
        0.7293140888214111,
        0.8023816347122192
      ],
      "min": [
        0.1323334276676178,
        0.6270236968994141
      ],
      "type": "VEC2"
    },
    {
      "bufferView": 0,
      "byteOffset": 111372,
      "componentType": 5125,
      "count": 1821,
      "type": "SCALAR"
    },
    {
      "bufferView": 2,
      "byteOffset": 246264,
      "componentType": 5126,
      "count": 1344,
      "max": [
        18.163259506225586,
        8.982996940612793,
        12.94107437133789
      ],
      "min": [
        -18.160282135009766,
        0.007131790276616812,
        -14.170743942260742
      ],
      "type": "VEC3"
    },
    {
      "bufferView": 2,
      "byteOffset": 262392,
      "componentType": 5126,
      "count": 1344,
      "max": [
        0.9983665347099304,
        1.0,
        0.9951388835906982
      ],
      "min": [
        -0.9983665347099304,
        -0.9973345398902893,
        -0.9939769506454468
      ],
      "type": "VEC3"
    },
    {
      "bufferView": 1,
      "byteOffset": 82088,
      "componentType": 5126,
      "count": 1344,
      "max": [
        0.8573983311653137,
        0.9926547408103943
      ],
      "min": [
        0.5289430618286133,
        0.0851372480392456
      ],
      "type": "VEC2"
    },
    {
      "bufferView": 0,
      "byteOffset": 118656,
      "componentType": 5125,
      "count": 3828,
      "type": "SCALAR"
    }
  ],
  "asset": {
    "extras": {
      "author": "Fruit Route Studio (https://sketchfab.com/fruitroute.studio)",
      "license": "SKETCHFAB Standard (https://sketchfab.com/licenses)",
      "source": "https://sketchfab.com/3d-models/free-hyper-casual-street-food-pack-8aae4c4c2d7f4a679a8235ef0207b4df",
      "title": "Free Hyper Casual Street Food Pack"
    },
    "generator": "Sketchfab-16.12.0",
    "version": "2.0"
  },
  "bufferViews": [
    {
      "buffer": 0,
      "byteLength": 133968,
      "name": "floatBufferViews",
      "target": 34963
    },
    {
      "buffer": 0,
      "byteLength": 92840,
      "byteOffset": 133968,
      "byteStride": 8,
      "name": "floatBufferViews",
      "target": 34962
    },
    {
      "buffer": 0,
      "byteLength": 278520,
      "byteOffset": 226808,
      "byteStride": 12,
      "name": "floatBufferViews",
      "target": 34962
    }
  ],
  "buffers": [
    {
      "byteLength": 505328,
      "uri": "scene.bin"
    }
  ],
  "images": [
    {
      "uri": "textures/streetFood_emissive.png"
    }
  ],
  "materials": [
    {
      "doubleSided": true,
      "emissiveFactor": [
        1.0,
        1.0,
        1.0
      ],
      "emissiveTexture": {
        "index": 0
      },
      "name": "streetFood",
      "pbrMetallicRoughness": {
        "baseColorFactor": [
          0.0,
          0.0,
          0.0,
          1.0
        ],
        "metallicFactor": 0.0
      }
    }
  ],
  "meshes": [
    {
      "name": "F_Latin_Corn_LOD0_streetFood_0",
      "primitives": [
        {
          "attributes": {
            "NORMAL": 1,
            "POSITION": 0,
            "TEXCOORD_0": 2
          },
          "indices": 3,
          "material": 0,
          "mode": 4
        }
      ]
    },
    {
      "name": "F_Latin_Taco_Classic_LOD0_streetFood_0",
      "primitives": [
        {
          "attributes": {
            "NORMAL": 5,
            "POSITION": 4,
            "TEXCOORD_0": 6
          },
          "indices": 7,
          "material": 0,
          "mode": 4
        }
      ]
    },
    {
      "name": "F_Europe_Bakery_Waffles_LOD0_streetFood_0",
      "primitives": [
        {
          "attributes": {
            "NORMAL": 9,
            "POSITION": 8,
            "TEXCOORD_0": 10
          },
          "indices": 11,
          "material": 0,
          "mode": 4
        }
      ]
    },
    {
      "name": "F_Asia_Onigiri_LOD0_streetFood_0",
      "primitives": [
        {
          "attributes": {
            "NORMAL": 13,
            "POSITION": 12,
            "TEXCOORD_0": 14
          },
          "indices": 15,
          "material": 0,
          "mode": 4
        }
      ]
    },
    {
      "name": "F_Asia_Takoyaki_Small_LOD0_streetFood_0",
      "primitives": [
        {
          "attributes": {
            "NORMAL": 17,
            "POSITION": 16,
            "TEXCOORD_0": 18
          },
          "indices": 19,
          "material": 0,
          "mode": 4
        }
      ]
    },
    {
      "name": "F_Europe_Bakery_Donut_Chocolate_LOD0_streetFood_0",
      "primitives": [
        {
          "attributes": {
            "NORMAL": 21,
            "POSITION": 20,
            "TEXCOORD_0": 22
          },
          "indices": 23,
          "material": 0,
          "mode": 4
        }
      ]
    },
    {
      "name": "F_Europe_Bakery_French_Baguette_Half_LOD0_streetFood_0",
      "primitives": [
        {
          "attributes": {
            "NORMAL": 25,
            "POSITION": 24,
            "TEXCOORD_0": 26
          },
          "indices": 27,
          "material": 0,
          "mode": 4
        }
      ]
    },
    {
      "name": "F_Europe_Burger_Hamburger_LOD0_streetFood_0",
      "primitives": [
        {
          "attributes": {
            "NORMAL": 29,
            "POSITION": 28,
            "TEXCOORD_0": 30
          },
          "indices": 31,
          "material": 0,
          "mode": 4
        }
      ]
    },
    {
      "name": "F_Europe_Hotdog_Hotdog_Classic_LOD0_streetFood_0",
      "primitives": [
        {
          "attributes": {
            "NORMAL": 33,
            "POSITION": 32,
            "TEXCOORD_0": 34
          },
          "indices": 35,
          "material": 0,
          "mode": 4
        }
      ]
    },
    {
      "name": "F_Europe_Pasta_LOD0_streetFood_0",
      "primitives": [
        {
          "attributes": {
            "NORMAL": 37,
            "POSITION": 36,
            "TEXCOORD_0": 38
          },
          "indices": 39,
          "material": 0,
          "mode": 4
        }
      ]
    },
    {
      "name": "F_Europe_Pizza_Pepperoni_LOD0_streetFood_0",
      "primitives": [
        {
          "attributes": {
            "NORMAL": 41,
            "POSITION": 40,
            "TEXCOORD_0": 42
          },
          "indices": 43,
          "material": 0,
          "mode": 4
        }
      ]
    },
    {
      "name": "F_Asia_Dumplings_LOD0_streetFood_0",
      "primitives": [
        {
          "attributes": {
            "NORMAL": 45,
            "POSITION": 44,
            "TEXCOORD_0": 46
          },
          "indices": 47,
          "material": 0,
          "mode": 4
        }
      ]
    }
  ],
  "nodes": [
    {
      "children": [
        1
      ],
      "matrix": [
        1.0,
        0.0,
        0.0,
        0.0,
        0.0,
        2.220446049250313e-16,
        -1.0,
        0.0,
        0.0,
        1.0,
        2.220446049250313e-16,
        0.0,
        0.0,
        0.0,
        0.0,
        1.0
      ],
      "name": "Sketchfab_model"
    },
    {
      "children": [
        2
      ],
      "matrix": [
        0.009999999776482582,
        0.0,
        0.0,
        0.0,
        0.0,
        0.0,
        0.009999999776482582,
        0.0,
        0.0,
        -0.009999999776482582,
        0.0,
        0.0,
        0.0,
        0.0,
        0.0,
        1.0
      ],
      "name": "30791303cda94400ad9929f2e1788be4.fbx"
    },
    {
      "children": [
        3,
        5,
        7,
        9,
        11,
        13,
        15,
        17,
        19,
        21,
        23,
        25
      ],
      "name": "RootNode"
    },
    {
      "children": [
        4
      ],
      "matrix": [
        0.5397734606884641,
        0.8265563534855174,
        -0.15952732440105302,
        0.0,
        -0.343211007592412,
        0.04304152075709956,
        -0.9382715558669736,
        0.0,
        -0.7686681087844353,
        0.5612056854230041,
        0.3069159461112602,
        0.0,
        76.88299560546875,
        5.529995441436768,
        58.05360794067383,
        1.0
      ],
      "name": "F_Latin_Corn_LOD0"
    },
    {
      "mesh": 0,
      "name": "F_Latin_Corn_LOD0_streetFood_0"
    },
    {
      "children": [
        6
      ],
      "matrix": [
        1.0,
        0.0,
        0.0,
        0.0,
        0.0,
        0.983205622040714,
        0.1825012459889864,
        0.0,
        0.0,
        -0.1825012459889864,
        0.983205622040714,
        0.0,
        76.88299560546875,
        5.209987163543701,
        -46.44638442993164,
        1.0
      ],
      "name": "F_Latin_Taco_Classic_LOD0"
    },
    {
      "mesh": 1,
      "name": "F_Latin_Taco_Classic_LOD0_streetFood_0"
    },
    {
      "children": [
        8
      ],
      "matrix": [
        1.0,
        0.0,
        0.0,
        0.0,
        0.0,
        0.9999999999999971,
        -7.549789415861594e-08,
        0.0,
        0.0,
        7.549789415861594e-08,
        0.9999999999999971,
        0.0,
        76.88299560546875,
        -9.203194167639595e-06,
        1.7536044120788574,
        1.0
      ],
      "name": "F_Europe_Bakery_Waffles_LOD0"
    },
    {
      "mesh": 2,
      "name": "F_Europe_Bakery_Waffles_LOD0_streetFood_0"
    },
    {
      "children": [
        10
      ],
      "matrix": [
        1.0,
        0.0,
        0.0,
        0.0,
        0.0,
        0.9999999999999971,
        -7.549789415861594e-08,
        0.0,
        0.0,
        7.549789415861594e-08,
        0.9999999999999971,
        0.0,
        -84.71701049804688,
        2.5799949169158936,
        54.25360107421875,
        1.0
      ],
      "name": "F_Asia_Onigiri_LOD0"
    },
    {
      "mesh": 3,
      "name": "F_Asia_Onigiri_LOD0_streetFood_0"
    },
    {
      "children": [
        12
      ],
      "matrix": [
        1.0,
        0.0,
        0.0,
        0.0,
        0.0,
        0.9999999999999971,
        -7.549789415861594e-08,
        0.0,
        0.0,
        7.549789415861594e-08,
        0.9999999999999971,
        0.0,
        -40.11701583862305,
        -5.239554411673453e-06,
        54.25360107421875,
        1.0
      ],
      "name": "F_Asia_Takoyaki_Small_LOD0"
    },
    {
      "mesh": 4,
      "name": "F_Asia_Takoyaki_Small_LOD0_streetFood_0"
    },
    {
      "children": [
        14
      ],
      "matrix": [
        1.0,
        0.0,
        0.0,
        0.0,
        0.0,
        0.9999999999999971,
        -7.549789415861594e-08,
        0.0,
        0.0,
        7.549789415861594e-08,
        0.9999999999999971,
        0.0,
        -84.71701049804688,
        -1.3008288078708574e-05,
        -48.646400451660156,
        1.0
      ],
      "name": "F_Europe_Bakery_Donut_Chocolate_LOD0"
    },
    {
      "mesh": 5,
      "name": "F_Europe_Bakery_Donut_Chocolate_LOD0_streetFood_0"
    },
    {
      "children": [
        16
      ],
      "matrix": [
        -3.126667722064269e-06,
        3.2149529775820254e-07,
        0.9999999999950604,
        0.0,
        4.470398617898111e-08,
        0.9999999999999474,
        -3.2149515798526303e-07,
        0.0,
        -0.999999999995111,
        4.470298097022704e-08,
        -3.1266677364971684e-06,
        0.0,
        17.282989501953125,
        5.369990348815918,
        1.7536044120788574,
        1.0
      ],
      "name": "F_Europe_Bakery_French_Baguette_Half_LOD0"
    },
    {
      "mesh": 6,
      "name": "F_Europe_Bakery_French_Baguette_Half_LOD0_streetFood_0"
    },
    {
      "children": [
        18
      ],
      "matrix": [
        1.0,
        0.0,
        0.0,
        0.0,
        0.0,
        0.9999999999999971,
        -7.549789415861594e-08,
        0.0,
        0.0,
        7.549789415861594e-08,
        0.9999999999999971,
        0.0,
        -84.71701049804688,
        -9.203194167639595e-06,
        1.7536044120788574,
        1.0
      ],
      "name": "F_Europe_Burger_Hamburger_LOD0"
    },
    {
      "mesh": 7,
      "name": "F_Europe_Burger_Hamburger_LOD0_streetFood_0"
    },
    {
      "children": [
        20
      ],
      "matrix": [
        1.0,
        0.0,
        0.0,
        0.0,
        0.0,
        0.9999999999999971,
        -7.549789415861594e-08,
        0.0,
        0.0,
        7.549789415861594e-08,
        0.9999999999999971,
        0.0,
        -40.11701583862305,
        4.99998664855957,
        -50.24638366699219,
        1.0
      ],
      "name": "F_Europe_Hotdog_Hotdog_Classic_LOD0"
    },
    {
      "mesh": 8,
      "name": "F_Europe_Hotdog_Hotdog_Classic_LOD0_streetFood_0"
    },
    {
      "children": [
        22
      ],
      "matrix": [
        1.0,
        0.0,
        0.0,
        0.0,
        0.0,
        0.9999999999999971,
        -7.549789415861594e-08,
        0.0,
        0.0,
        7.549789415861594e-08,
        0.9999999999999971,
        0.0,
        18.082984924316406,
        -1.3008288078708574e-05,
        -48.646400451660156,
        1.0
      ],
      "name": "F_Europe_Pasta_LOD0"
    },
    {
      "mesh": 9,
      "name": "F_Europe_Pasta_LOD0_streetFood_0"
    },
    {
      "children": [
        24
      ],
      "matrix": [
        1.0,
        0.0,
        0.0,
        0.0,
        0.0,
        0.9999999999999971,
        -7.549789415861594e-08,
        0.0,
        0.0,
        7.549789415861594e-08,
        0.9999999999999971,
        0.0,
        -40.11701583862305,
        -9.203194167639595e-06,
        1.7536044120788574,
        1.0
      ],
      "name": "F_Europe_Pizza_Pepperoni_LOD0"
    },
    {
      "mesh": 10,
      "name": "F_Europe_Pizza_Pepperoni_LOD0_streetFood_0"
    },
    {
      "children": [
        26
      ],
      "matrix": [
        1.0,
        0.0,
        0.0,
        0.0,
        0.0,
        0.9999999999999971,
        -7.549789415861594e-08,
        0.0,
        0.0,
        7.549789415861594e-08,
        0.9999999999999971,
        0.0,
        17.38298988342285,
        -5.239554411673453e-06,
        54.25360107421875,
        1.0
      ],
      "name": "F_Asia_Dumplings_LOD0"
    },
    {
      "mesh": 11,
      "name": "F_Asia_Dumplings_LOD0_streetFood_0"
    }
  ],
  "samplers": [
    {
      "magFilter": 9729,
      "minFilter": 9987,
      "wrapS": 10497,
      "wrapT": 10497
    }
  ],
  "scene": 0,
  "scenes": [
    {
      "name": "Sketchfab_Scene",
      "nodes": [
        0
      ]
    }
  ],
  "textures": [
    {
      "sampler": 0,
      "source": 0
    }
  ]
}
